<mxfile host="app.diagrams.net" modified="2024-01-24T11:29:07.191Z" agent="Mozilla/5.0 (Windows NT 10.0; Win64; x64) AppleWebKit/537.36 (KHTML, like Gecko) Chrome/120.0.0.0 Safari/537.36" etag="Qbfu0TwSv_gINeo-g_-M" version="22.1.21" type="device">
  <diagram name="ページ1" id="Ud1cx3CD0BFMchsYBj0D">
    <mxGraphModel dx="1195" dy="622" grid="1" gridSize="10" guides="1" tooltips="1" connect="1" arrows="1" fold="1" page="1" pageScale="1" pageWidth="827" pageHeight="1169" background="none" math="0" shadow="0">
      <root>
        <mxCell id="0" />
        <mxCell id="1" parent="0" />
        <mxCell id="25PdtIggZuul-EYHVqLl-1" value="Cans" style="rounded=1;whiteSpace=wrap;html=1;" vertex="1" parent="1">
          <mxGeometry x="50" y="205" width="120" height="150" as="geometry" />
        </mxCell>
        <mxCell id="25PdtIggZuul-EYHVqLl-2" value="PSE" style="rounded=0;whiteSpace=wrap;html=1;" vertex="1" parent="1">
          <mxGeometry x="630" y="200" width="120" height="160" as="geometry" />
        </mxCell>
        <mxCell id="25PdtIggZuul-EYHVqLl-3" value="" style="endArrow=classic;html=1;rounded=0;entryX=0;entryY=0.25;entryDx=0;entryDy=0;entryPerimeter=0;exitX=1;exitY=0.25;exitDx=0;exitDy=0;" edge="1" parent="1" source="25PdtIggZuul-EYHVqLl-1" target="25PdtIggZuul-EYHVqLl-2">
          <mxGeometry width="50" height="50" relative="1" as="geometry">
            <mxPoint x="180" y="240" as="sourcePoint" />
            <mxPoint x="450" y="250" as="targetPoint" />
          </mxGeometry>
        </mxCell>
        <mxCell id="25PdtIggZuul-EYHVqLl-4" value="予約情報" style="swimlane;fontStyle=0;childLayout=stackLayout;horizontal=1;startSize=30;horizontalStack=0;resizeParent=1;resizeParentMax=0;resizeLast=0;collapsible=1;marginBottom=0;whiteSpace=wrap;html=1;fillColor=default;fillStyle=auto;swimlaneFillColor=default;" vertex="1" parent="1">
          <mxGeometry x="330" y="100" width="140" height="160" as="geometry" />
        </mxCell>
        <mxCell id="25PdtIggZuul-EYHVqLl-5" value="開始・終了時間" style="text;strokeColor=none;fillColor=none;align=left;verticalAlign=middle;spacingLeft=4;spacingRight=4;overflow=hidden;points=[[0,0.5],[1,0.5]];portConstraint=eastwest;rotatable=0;whiteSpace=wrap;html=1;" vertex="1" parent="25PdtIggZuul-EYHVqLl-4">
          <mxGeometry y="30" width="140" height="30" as="geometry" />
        </mxCell>
        <mxCell id="25PdtIggZuul-EYHVqLl-6" value="電話番号リスト" style="text;strokeColor=none;fillColor=none;align=left;verticalAlign=middle;spacingLeft=4;spacingRight=4;overflow=hidden;points=[[0,0.5],[1,0.5]];portConstraint=eastwest;rotatable=0;whiteSpace=wrap;html=1;" vertex="1" parent="25PdtIggZuul-EYHVqLl-4">
          <mxGeometry y="60" width="140" height="30" as="geometry" />
        </mxCell>
        <mxCell id="25PdtIggZuul-EYHVqLl-7" value="各質問（音声ファイル名、選択肢）" style="text;strokeColor=none;fillColor=none;align=left;verticalAlign=middle;spacingLeft=4;spacingRight=4;overflow=hidden;points=[[0,0.5],[1,0.5]];portConstraint=eastwest;rotatable=0;whiteSpace=wrap;html=1;" vertex="1" parent="25PdtIggZuul-EYHVqLl-4">
          <mxGeometry y="90" width="140" height="30" as="geometry" />
        </mxCell>
        <mxCell id="25PdtIggZuul-EYHVqLl-14" value="greeing, endingのファイル名" style="text;strokeColor=none;fillColor=none;align=left;verticalAlign=middle;spacingLeft=4;spacingRight=4;overflow=hidden;points=[[0,0.5],[1,0.5]];portConstraint=eastwest;rotatable=0;whiteSpace=wrap;html=1;" vertex="1" parent="25PdtIggZuul-EYHVqLl-4">
          <mxGeometry y="120" width="140" height="40" as="geometry" />
        </mxCell>
        <mxCell id="25PdtIggZuul-EYHVqLl-8" value="" style="endArrow=classic;html=1;rounded=0;entryX=1;entryY=0.75;entryDx=0;entryDy=0;exitX=0;exitY=0.75;exitDx=0;exitDy=0;" edge="1" parent="1" source="25PdtIggZuul-EYHVqLl-2" target="25PdtIggZuul-EYHVqLl-1">
          <mxGeometry width="50" height="50" relative="1" as="geometry">
            <mxPoint x="180" y="303" as="sourcePoint" />
            <mxPoint x="640" y="300" as="targetPoint" />
          </mxGeometry>
        </mxCell>
        <mxCell id="25PdtIggZuul-EYHVqLl-9" value="結果" style="swimlane;fontStyle=0;childLayout=stackLayout;horizontal=1;startSize=30;horizontalStack=0;resizeParent=1;resizeParentMax=0;resizeLast=0;collapsible=1;marginBottom=0;whiteSpace=wrap;html=1;fillColor=default;fillStyle=auto;swimlaneFillColor=default;" vertex="1" parent="1">
          <mxGeometry x="330" y="300" width="140" height="110" as="geometry" />
        </mxCell>
        <mxCell id="25PdtIggZuul-EYHVqLl-10" value="予約情報ID（ac_id)" style="text;strokeColor=none;fillColor=none;align=left;verticalAlign=middle;spacingLeft=4;spacingRight=4;overflow=hidden;points=[[0,0.5],[1,0.5]];portConstraint=eastwest;rotatable=0;whiteSpace=wrap;html=1;" vertex="1" parent="25PdtIggZuul-EYHVqLl-9">
          <mxGeometry y="30" width="140" height="30" as="geometry" />
        </mxCell>
        <mxCell id="25PdtIggZuul-EYHVqLl-11" value="各結果（ステータス、切断時ラベル名、発信時刻etc...）" style="text;strokeColor=none;fillColor=none;align=left;verticalAlign=middle;spacingLeft=4;spacingRight=4;overflow=hidden;points=[[0,0.5],[1,0.5]];portConstraint=eastwest;rotatable=0;whiteSpace=wrap;html=1;" vertex="1" parent="25PdtIggZuul-EYHVqLl-9">
          <mxGeometry y="60" width="140" height="50" as="geometry" />
        </mxCell>
        <mxCell id="25PdtIggZuul-EYHVqLl-15" value="各質問の音声ファイル" style="rounded=1;whiteSpace=wrap;html=1;" vertex="1" parent="1">
          <mxGeometry x="490" y="100" width="100" height="35" as="geometry" />
        </mxCell>
        <mxCell id="25PdtIggZuul-EYHVqLl-16" value="" style="rounded=1;whiteSpace=wrap;html=1;" vertex="1" parent="1">
          <mxGeometry x="490" y="150" width="100" height="35" as="geometry" />
        </mxCell>
      </root>
    </mxGraphModel>
  </diagram>
</mxfile>
